<?xml version="1.0" standalone="no"?>
<!DOCTYPE svg PUBLIC "-//W3C//DTD SVG 20010904//EN"
 "http://www.w3.org/TR/2001/REC-SVG-20010904/DTD/svg10.dtd">
<svg version="1.0" xmlns="http://www.w3.org/2000/svg"
 width="225.000000pt" height="225.000000pt" viewBox="0 0 225.000000 225.000000"
 preserveAspectRatio="xMidYMid meet">
<metadata>
Created by potrace 1.11, written by Peter Selinger 2001-2013
</metadata>
<g transform="translate(0.000000,225.000000) scale(0.100000,-0.100000)"
fill="#000000" stroke="none">
<path d="M189 2061 l-29 -29 0 -907 0 -907 29 -29 29 -29 907 0 907 0 29 29
29 29 0 907 0 907 -29 29 -29 29 -907 0 -907 0 -29 -29z m1121 -322 c111 -36
180 -79 266 -164 65 -64 89 -97 122 -165 42 -88 72 -206 72 -285 0 -79 -30
-197 -72 -285 -33 -68 -57 -101 -122 -165 -134 -134 -268 -189 -451 -189 -183
0 -317 55 -451 189 -65 64 -89 97 -122 165 -56 118 -66 159 -66 285 0 126 10
167 66 285 33 68 57 101 122 165 103 102 210 160 346 185 71 14 217 3 290 -21z"/>
<path d="M1024 1575 c-234 -51 -393 -283 -355 -519 41 -253 280 -429 527 -387
252 42 426 281 385 527 -32 191 -173 340 -360 380 -80 17 -117 17 -197 -1z
m212 -270 c135 -79 133 -282 -4 -362 -100 -59 -230 -26 -289 75 -70 119 -10
269 125 313 43 14 120 2 168 -26z"/>
</g>
</svg>
